<?xml version="1.0" encoding="UTF-8"?>
<svg version="1.1" xmlns="http://www.w3.org/2000/svg" width="1000" height="500">
<path d="M0 0 C4.47439712 1.3507614 7.9386041 3.77167829 11.3125 7 C11.3125 7.66 11.3125 8.32 11.3125 9 C13.2925 9.495 13.2925 9.495 15.3125 10 C15.3125 10.66 15.3125 11.32 15.3125 12 C15.89 12.0825 16.4675 12.165 17.0625 12.25 C19.95119579 13.2128986 21.20369161 14.82728832 23.3125 17 C24.22 17.53625 25.1275 18.0725 26.0625 18.625 C26.805 19.07875 27.5475 19.5325 28.3125 20 C28.3125 20.66 28.3125 21.32 28.3125 22 C29.116875 22.0928125 29.116875 22.0928125 29.9375 22.1875 C34.16051764 23.63221656 37.20014748 26.88764748 40.3125 30 C41.1375 30.53625 41.9625 31.0725 42.8125 31.625 C56.64430147 40.66360294 56.64430147 40.66360294 59.3125 46 C60.2715625 46.185625 60.2715625 46.185625 61.25 46.375 C62.2709375 46.684375 62.2709375 46.684375 63.3125 47 C63.97916667 48.33333333 64.64583333 49.66666667 65.3125 51 C67.29295559 51.66179847 67.29295559 51.66179847 69.3125 52 C69.9725 52.66 70.6325 53.32 71.3125 54 C73.56058231 55.76635039 75.86185871 57.36234298 78.25 58.9375 C81.86940777 61.37506034 85.225345 63.912845 88.3125 67 C90.36406071 68.57286321 92.43902127 70.087862 94.5625 71.5625 C95.42875 72.2740625 95.42875 72.2740625 96.3125 73 C96.3125 73.66 96.3125 74.32 96.3125 75 C97.116875 75.0928125 97.116875 75.0928125 97.9375 75.1875 C101.84242602 76.52339574 105.4441985 79.26339701 107.3125 83 C108.488125 83.4640625 108.488125 83.4640625 109.6875 83.9375 C112.35435552 85.01694152 113.40562678 85.92731172 115.3125 88 C117.85409154 90.0496706 120.35135694 91.62518358 123.3125 93 C123.3125 93.66 123.3125 94.32 123.3125 95 C124.1478125 95.37125 124.1478125 95.37125 125 95.75 C127.7213901 97.22102167 129.92828522 99.03302281 132.3125 101 C134.27970575 102.48945578 136.25959173 103.96080075 138.2421875 105.4296875 C141.37402873 107.75655749 144.46791858 110.0930411 147.4375 112.625 C150.26211478 115.04841634 150.26211478 115.04841634 153.375 117 C156.5182832 119.14010771 158.86547373 121.08012086 161.3125 124 C161.91377258 127.22077942 161.91377258 127.22077942 161.88012695 130.90161133 C161.88085709 131.57533783 161.88158722 132.24906433 161.88233948 132.94320679 C161.87887235 135.15698444 161.84005972 137.36862403 161.80078125 139.58203125 C161.79144984 141.12187043 161.78433527 142.6617245 161.77934265 144.20158386 C161.76029819 148.2445104 161.71122094 152.28653152 161.65582275 156.32910156 C161.60457425 160.45820875 161.58181675 164.58746297 161.55664062 168.71679688 C161.50309836 176.81161233 161.41781812 184.90569338 161.3125 193 C160.6525 193 159.9925 193 159.3125 193 C159.3125 193.99 159.3125 194.98 159.3125 196 C158.3225 196 157.3325 196 156.3125 196 C155.9825 196.99 155.6525 197.98 155.3125 199 C153.33928947 200.3726682 151.33706848 201.70427617 149.3125 203 C148.755625 203.5775 148.19875 204.155 147.625 204.75 C146.3125 206 146.3125 206 143.3125 206 C142.9825 206.99 142.6525 207.98 142.3125 209 C140.60546875 210.24609375 140.60546875 210.24609375 138.5 211.4375 C135.30260095 213.32505221 132.89637025 215.31675013 130.3125 218 C129.6525 218 128.9925 218 128.3125 218 C127.136875 219.2065625 127.136875 219.2065625 125.9375 220.4375 C123.29803033 223.01412516 122.62558978 223.20028867 119.3125 224 C118.9825 224.66 118.6525 225.32 118.3125 226 C117.9825 226.66 117.6525 227.32 117.3125 228 C115.25 228.625 115.25 228.625 113.3125 229 C112.9825 229.66 112.6525 230.32 112.3125 231 C110.01132851 233.05104416 107.68306269 235.03143832 105.3125 237 C103.95898438 238.15048828 103.95898438 238.15048828 102.578125 239.32421875 C101.62421875 240.12472656 100.6703125 240.92523438 99.6875 241.75 C98.78773438 242.50796875 97.88796875 243.2659375 96.9609375 244.046875 C94.4358729 245.90901704 92.2072229 246.86771043 89.3125 248 C87.96955519 249.65893182 86.63505312 251.32476605 85.3125 253 C84.3225 253 83.3325 253 82.3125 253 C81.9825 253.99 81.6525 254.98 81.3125 256 C79.7890625 257.38671875 79.7890625 257.38671875 77.9375 258.6875 C77.33164062 259.12449219 76.72578125 259.56148438 76.1015625 260.01171875 C74.3125 261 74.3125 261 71.3125 261 C71.3125 261.99 71.3125 262.98 71.3125 264 C70.3225 264 69.3325 264 68.3125 264 C67.9825 264.99 67.6525 265.98 67.3125 267 C65.7890625 268.38671875 65.7890625 268.38671875 63.9375 269.6875 C63.33164063 270.12449219 62.72578125 270.56148438 62.1015625 271.01171875 C60.3125 272 60.3125 272 57.3125 272 C56.9825 272.99 56.6525 273.98 56.3125 275 C54.7109375 276.4296875 54.7109375 276.4296875 52.6875 277.875 C51.96691406 278.39707031 51.24632812 278.91914063 50.50390625 279.45703125 C49.13996242 280.41738386 47.77325206 281.37383446 46.40234375 282.32421875 C43.48580955 284.35617774 41.06977818 286.24823822 38.5625 288.8125 C36.3125 291 36.3125 291 33.3125 291 C32.9825 291.99 32.6525 292.98 32.3125 294 C30.67618108 295.04892238 29.00764137 296.04906703 27.3125 297 C26.6525 297.66 25.9925 298.32 25.3125 299 C23.97916667 300 22.64583333 301 21.3125 302 C20.26898368 302.89367808 19.22740922 303.78962716 18.1875 304.6875 C15.3125 307 15.3125 307 13.3125 307 C12.9825 307.99 12.6525 308.98 12.3125 310 C11.6525 310 10.9925 310 10.3125 310 C9.6525 310.66 8.9925 311.32 8.3125 312 C7.17660743 313.03188313 6.02975956 314.05177497 4.875 315.0625 C4.27816406 315.58972656 3.68132812 316.11695313 3.06640625 316.66015625 C1.3125 318 1.3125 318 -1.6875 319 C-4.09765625 317.41796875 -4.09765625 317.41796875 -6.75 315.1875 C-7.62785156 314.45917969 -8.50570312 313.73085938 -9.41015625 312.98046875 C-10.87980375 311.7024048 -12.3103088 310.3771912 -13.6875 309 C-14.615625 308.38125 -15.54375 307.7625 -16.5 307.125 C-20.17374166 304.67583889 -23.56401742 302.12348258 -26.6875 299 C-28.00955897 297.98514146 -29.34412233 296.98646552 -30.6875 296 C-35.47183959 292.45532735 -40.11168565 288.81317863 -44.6875 285 C-46.03611712 283.97184635 -47.39058994 282.9513404 -48.75 281.9375 C-49.42160156 281.43605469 -50.09320313 280.93460937 -50.78515625 280.41796875 C-51.41292969 279.95003906 -52.04070312 279.48210937 -52.6875 279 C-54.3949998 277.71937515 -56.08121931 276.40549561 -57.6875 275 C-57.6875 274.34 -57.6875 273.68 -57.6875 273 C-59.0075 272.67 -60.3275 272.34 -61.6875 272 C-61.6875 271.34 -61.6875 270.68 -61.6875 270 C-62.6775 269.67 -63.6675 269.34 -64.6875 269 C-66.3700613 267.68678142 -68.03747172 266.35386936 -69.6875 265 C-70.3475 264.67 -71.0075 264.34 -71.6875 264 C-71.6875 263.34 -71.6875 262.68 -71.6875 262 C-72.285625 261.896875 -72.88375 261.79375 -73.5 261.6875 C-76.01607968 260.8967321 -76.92504346 259.91571363 -78.6875 258 C-79.6775 257.34 -80.6675 256.68 -81.6875 256 C-81.6875 255.34 -81.6875 254.68 -81.6875 254 C-82.22375 253.938125 -82.76 253.87625 -83.3125 253.8125 C-86.13402537 252.84724132 -87.94520011 251.22523044 -90.16015625 249.26953125 C-91.82930859 247.81240359 -91.82930859 247.81240359 -94.5625 246.3125 C-95.26375 245.879375 -95.965 245.44625 -96.6875 245 C-96.6875 244.34 -96.6875 243.68 -96.6875 243 C-97.6775 242.67 -98.6675 242.34 -99.6875 242 C-99.6875 241.34 -99.6875 240.68 -99.6875 240 C-100.244375 239.9175 -100.80125 239.835 -101.375 239.75 C-104.44122194 238.75554964 -106.21477856 237.07933394 -108.6875 235 C-110.01563247 233.99310282 -111.34935281 232.99354913 -112.6875 232 C-119.6875 226.75 -119.6875 226.75 -121.6875 225 C-121.6875 224.34 -121.6875 223.68 -121.6875 223 C-122.6775 223 -123.6675 223 -124.6875 223 C-126.39529973 221.37550757 -128.06300757 219.70779973 -129.6875 218 C-130.3475 217.67 -131.0075 217.34 -131.6875 217 C-131.6875 216.34 -131.6875 215.68 -131.6875 215 C-132.57115234 214.82210937 -132.57115234 214.82210937 -133.47265625 214.640625 C-138.1002405 213.30213502 -141.75344628 209.95863409 -145.0625 206.5625 C-148.00834023 203.68679882 -151.13158318 201.62063007 -154.6015625 199.4296875 C-156.56331903 198.0851128 -158.14989872 196.81182316 -159.6875 195 C-159.6875 194.34 -159.6875 193.68 -159.6875 193 C-160.3475 193 -161.0075 193 -161.6875 193 C-161.80343167 184.08998073 -161.89223378 175.18022169 -161.94656086 166.26961231 C-161.97263747 162.13186282 -162.00799885 157.99462992 -162.06469727 153.85717773 C-162.1190881 149.86304854 -162.14893511 145.86941569 -162.16188622 141.87494469 C-162.17111359 140.3522733 -162.18913316 138.82962861 -162.21615028 137.30716896 C-162.25253836 135.17138957 -162.25744183 133.03765161 -162.25512695 130.90161133 C-162.26623001 129.6869368 -162.27733307 128.47226227 -162.28877258 127.22077942 C-161.25528988 121.68482134 -156.82132523 118.92222507 -152.5 115.6875 C-151.82582031 115.17574219 -151.15164062 114.66398437 -150.45703125 114.13671875 C-148.6875 113 -148.6875 113 -146.6875 113 C-146.1925 112.01 -146.1925 112.01 -145.6875 111 C-144.45056093 109.9583671 -143.17357947 108.96369534 -141.875 108 C-141.18792969 107.484375 -140.50085938 106.96875 -139.79296875 106.4375 C-137.6875 105 -137.6875 105 -135.48828125 103.9375 C-133.50825835 103.13055058 -133.50825835 103.13055058 -132.6875 101 C-132.0275 101.33 -131.3675 101.66 -130.6875 102 C-130.3575 100.68 -130.0275 99.36 -129.6875 98 C-129.0275 98 -128.3675 98 -127.6875 98 C-126.5428125 96.8553125 -126.5428125 96.8553125 -125.375 95.6875 C-122.90497826 93.21747826 -120.69663307 91.70788634 -117.6875 90 C-117.0275 89.34 -116.3675 88.68 -115.6875 88 C-111.88325175 84.55988634 -108.1557268 81.55327246 -103.6875 79 C-103.0275 78.34 -102.3675 77.68 -101.6875 77 C-96.0922619 72 -96.0922619 72 -92.6875 72 C-92.48125 71.4225 -92.275 70.845 -92.0625 70.25 C-90.16192144 67.13996235 -87.76919828 65.94032855 -84.6875 64 C-79.6315421 60.33913029 -74.57615512 56.59914626 -69.93359375 52.421875 C-69.31613281 51.87015625 -68.69867188 51.3184375 -68.0625 50.75 C-67.20785156 49.96882813 -67.20785156 49.96882813 -66.3359375 49.171875 C-64.6875 48 -64.6875 48 -61.6875 48 C-61.48125 47.4225 -61.275 46.845 -61.0625 46.25 C-59.17421433 43.16007799 -56.72913295 41.95123623 -53.6875 40 C-52.48666437 38.97373518 -51.29938346 37.93143229 -50.125 36.875 C-47.44584196 34.51068759 -45.08081088 33.19763913 -41.6875 32 C-41.3575 31.34 -41.0275 30.68 -40.6875 30 C-39.36646002 28.9838154 -38.02925973 27.98866506 -36.6875 27 C-34.93585783 25.48055226 -33.19817141 23.94703151 -31.46875 22.40234375 C-29.62802126 20.95317354 -27.78130047 20.03402851 -25.6875 19 C-25.0275 18.34 -24.3675 17.68 -23.6875 17 C-4.19969512 0 -4.19969512 0 0 0 Z M-3.6875 46 C-4.3475 46.66 -5.0075 47.32 -5.6875 48 C-6.244375 48.4125 -6.80125 48.825 -7.375 49.25 C-9.37769365 50.76555195 -11.23965834 52.3441782 -13.125 54 C-15.83482582 56.35006308 -18.58513565 58.19028746 -21.6875 60 C-22.70769573 60.9793879 -23.70899805 61.97895449 -24.6875 63 C-26.82573062 64.7105845 -28.95674726 66.16026623 -31.3125 67.5625 C-33.83033683 69.08645387 -35.52414998 70.83120498 -37.5625 72.9375 C-39.51934215 74.83678797 -41.48612979 76.39900348 -43.6875 78 C-45.3949998 79.28062485 -47.07013741 80.6072711 -48.6875 82 C-48.6875 82.66 -48.6875 83.32 -48.6875 84 C-51.01964148 85.20628008 -53.18392139 86.1654738 -55.6875 87 C-56.1825 87.99 -56.1825 87.99 -56.6875 89 C-58.1725 89.495 -58.1725 89.495 -59.6875 90 C-60.1825 90.99 -60.1825 90.99 -60.6875 92 C-62.1725 92.495 -62.1725 92.495 -63.6875 93 C-65.63966435 94.95216435 -66.53576645 96.53199953 -67.6875 99 C-68.6775 99 -69.6675 99 -70.6875 99 C-71.1825 99.99 -71.1825 99.99 -71.6875 101 C-72.6775 101.33 -73.6675 101.66 -74.6875 102 C-75.1825 102.99 -75.1825 102.99 -75.6875 104 C-76.6775 104.33 -77.6675 104.66 -78.6875 105 C-79.285625 105.78375 -79.88375 106.5675 -80.5 107.375 C-82.98330075 110.3549609 -85.21034603 111.37239601 -88.6875 113 C-90.31264468 114.45833358 -90.31264468 114.45833358 -91.6875 116 C-93.87539271 117.75031417 -95.97110097 119.15469144 -98.4375 120.5 C-99.18 120.995 -99.9225 121.49 -100.6875 122 C-100.6875 122.99 -100.6875 123.98 -100.6875 125 C-101.6775 125 -102.6675 125 -103.6875 125 C-105.16742158 126.22722741 -105.16742158 126.22722741 -106.6875 128 C-110.41943615 132.04293083 -113.92041706 134.39159613 -118.6875 137 C-119.6775 137.99 -119.6775 137.99 -120.6875 139 C-121.37328125 139.54197021 -122.0590625 140.08394043 -122.765625 140.64233398 C-125.37813645 143.84724037 -125.3608344 146.75131655 -125.4375 150.72265625 C-125.46352295 151.46454697 -125.4895459 152.20643768 -125.51635742 152.97080994 C-125.56588977 154.5347094 -125.60564149 156.09894544 -125.63623047 157.66333008 C-125.68743299 160.05936446 -125.78108995 162.45116987 -125.87890625 164.84570312 C-125.92182869 166.36711749 -125.96227787 167.88860407 -126 169.41015625 C-126.0299707 170.12583267 -126.05994141 170.84150909 -126.09082031 171.57887268 C-126.16153768 173.83800494 -126.16153768 173.83800494 -125.6875 177 C-123.90375372 178.95174253 -123.90375372 178.95174253 -121.6875 180 C-117.6875 183 -117.6875 183 -115.8203125 184.40234375 C-114.42177512 185.44996607 -113.02080999 186.49435693 -111.6171875 187.53515625 C-110.93914062 188.03917969 -110.26109375 188.54320312 -109.5625 189.0625 C-108.87929687 189.56910156 -108.19609375 190.07570313 -107.4921875 190.59765625 C-105.5345883 192.118821 -103.89114795 193.76978928 -102.25 195.625 C-100.65903545 197.33031395 -100.65903545 197.33031395 -97.6875 197 C-97.3575 197.99 -97.0275 198.98 -96.6875 200 C-95.05118108 201.04892238 -93.38264137 202.04906703 -91.6875 203 C-90.51000192 204.17749808 -89.3533404 205.37774564 -88.25 206.625 C-86.65903545 208.33031395 -86.65903545 208.33031395 -83.6875 208 C-83.6875 208.66 -83.6875 209.32 -83.6875 210 C-81.71459413 212.34869747 -80.68443138 213.00102287 -77.6875 214 C-76.6975 214.99 -76.6975 214.99 -75.6875 216 C-75.006875 216.33 -74.32625 216.66 -73.625 217 C-71.6875 218 -71.6875 218 -70.6875 220 C-69.6975 220 -68.7075 220 -67.6875 220 C-67.3575 220.99 -67.0275 221.98 -66.6875 223 C-65.39014493 224.04625409 -64.05483028 225.04701223 -62.6875 226 C-62.0275 226.66 -61.3675 227.32 -60.6875 228 C-59.6975 228 -58.7075 228 -57.6875 228 C-57.3575 228.99 -57.0275 229.98 -56.6875 231 C-56.0275 231 -55.3675 231 -54.6875 231 C-53.02083333 232.66666667 -51.35416667 234.33333333 -49.6875 236 C-48.37002676 236.69748583 -47.03835807 237.36959957 -45.6875 238 C-44.66553008 238.97753644 -43.66770375 239.9805881 -42.6875 241 C-40.22346753 243.07497471 -37.83243748 244.91372769 -35.0625 246.5625 C-32.85828391 247.89663079 -31.45421709 249.1596697 -29.6875 251 C-26.59598963 253.99803093 -26.59598963 253.99803093 -22.6875 255 C-22.3575 255.99 -22.0275 256.98 -21.6875 258 C-21.0275 258 -20.3675 258 -19.6875 258 C-19.0275 258.66 -18.3675 259.32 -17.6875 260 C-17.11 260.433125 -16.5325 260.86625 -15.9375 261.3125 C-14.15970486 262.64584635 -12.44232628 264.05972231 -10.75 265.5 C-5.96894186 269.75721146 -5.96894186 269.75721146 0 270.8125 C2.46838836 270.13259902 2.46838836 270.13259902 4.3125 268 C7.85907283 264.92630355 11.25079048 262.36933055 15.3125 260 C15.9725 259.34 16.6325 258.68 17.3125 258 C18.64583333 257.33333333 19.97916667 256.66666667 21.3125 256 C23.5361068 254.0745356 23.5361068 254.0745356 24.3125 251 C25.3025 251 26.2925 251 27.3125 251 C28.66823748 249.68945377 29.99862831 248.35251497 31.3125 247 C32.97529327 245.9935725 34.64233484 244.99414593 36.3125 244 C37.323125 243.154375 38.33375 242.30875 39.375 241.4375 C42.3125 239 42.3125 239 44.375 238 C47.21401413 236.53470239 49.09299679 234.27499079 51.3125 232 C53.45049539 230.26287874 55.56764845 228.84812592 57.9375 227.4375 C60.38861371 226.08307837 60.38861371 226.08307837 62.3125 224 C63.97038785 222.65576661 65.63826317 221.32381517 67.3125 220 C68.55 218.9790625 68.55 218.9790625 69.8125 217.9375 C72.3125 216 72.3125 216 74.9375 214.5 C77.38633282 213.1609572 77.38633282 213.1609572 78.75 211 C80.84051537 208.32414032 83.26977729 207.42425318 86.3125 206 C87.46879692 204.84370308 88.61856121 203.68063178 89.75 202.5 C91.3125 201 91.3125 201 94.3125 199 C95.116875 198.34 95.92125 197.68 96.75 197 C99.3125 195 99.3125 195 101.3125 194.0625 C103.55297291 192.99735744 103.55297291 192.99735744 105.75 190.5625 C108.16085109 188.15164891 110.37082844 186.66959737 113.3125 185 C113.9725 184.34 114.6325 183.68 115.3125 183 C115.93125 182.54625 116.55 182.0925 117.1875 181.625 C120.05942557 179.42882162 122.68098753 177.26302494 124.3125 174 C125.04254957 162.74864778 123.87664978 151.24098453 123.3125 140 C122.3225 139.67 121.3325 139.34 120.3125 139 C119.6525 138.34 118.9925 137.68 118.3125 137 C117.466875 136.34 116.62125 135.68 115.75 135 C113.3125 133 113.3125 133 112.3125 131 C111.3225 130.67 110.3325 130.34 109.3125 130 C108.18730712 128.87480712 107.07293992 127.73762467 106 126.5625 C104.28463289 124.86707293 104.28463289 124.86707293 101.8125 123.5 C99.53778294 122.13516977 98.12650571 120.88958928 96.3125 119 C94.66247172 117.64613064 92.9950613 116.31321858 91.3125 115 C90.631875 114.46375 89.95125 113.9275 89.25 113.375 C87.37855824 111.94814193 87.37855824 111.94814193 85.3125 111.125 C82.61523807 109.60779016 81.22347471 107.40412947 79.3125 105 C78.3225 104.67 77.3325 104.34 76.3125 104 C75.9825 103.34 75.6525 102.68 75.3125 102 C74.3225 101.67 73.3325 101.34 72.3125 101 C70.64182867 99.00334402 68.97497014 97.00348966 67.3125 95 C66.6525 95 65.9925 95 65.3125 95 C64.6525 94.34 63.9925 93.68 63.3125 93 C62.714375 92.566875 62.11625 92.13375 61.5 91.6875 C59.3125 90 59.3125 90 56.75 87.375 C54.47311309 84.8115594 54.47311309 84.8115594 51.3125 84 C50.9825 83.34 50.6525 82.68 50.3125 82 C49.3225 81.67 48.3325 81.34 47.3125 81 C46.29053008 80.02246356 45.29270375 79.0194119 44.3125 78 C42.98594221 76.99102914 41.65163305 75.99221996 40.3125 75 C39.64089844 74.47019531 38.96929687 73.94039062 38.27734375 73.39453125 C37.60832031 72.87246094 36.93929687 72.35039062 36.25 71.8125 C35.57839844 71.28269531 34.90679687 70.75289062 34.21484375 70.20703125 C32.26580627 68.73212344 32.26580627 68.73212344 29.3125 69 C27.95863064 70.65002828 26.62571858 72.3174387 25.3125 74 C24.3225 74.33 23.3325 74.66 22.3125 75 C21.28841432 75.9753197 20.29415594 76.98198643 19.3125 78 C18.3225 78.804375 17.3325 79.60875 16.3125 80.4375 C12.79674949 83.32361104 12.79674949 83.32361104 10.3125 87 C11.02207237 89.73398135 11.02207237 89.73398135 12.3125 92 C12.9725 92 13.6325 92 14.3125 92 C16.11320572 93.56583106 17.43437449 95.17265553 18.8125 97.125 C20.26208464 99.28500114 20.26208464 99.28500114 23.3125 100 C23.9725 100.66 24.6325 101.32 25.3125 102 C26.63517727 103.01405257 27.96974831 104.01268258 29.3125 105 C40.35037879 113.18939394 40.35037879 113.18939394 41.3125 118 C40.52875 118.28875 39.745 118.5775 38.9375 118.875 C36.21578368 119.84912254 36.21578368 119.84912254 34.3125 122 C33.44625 122.66 32.58 123.32 31.6875 124 C30.511875 124.99 30.511875 124.99 29.3125 126 C29.3125 126.66 29.3125 127.32 29.3125 128 C28.36375 128.28875 27.415 128.5775 26.4375 128.875 C23.26038422 129.76825109 23.26038422 129.76825109 21.3125 132 C20.52875 132.61875 19.745 133.2375 18.9375 133.875 C16.3313184 135.88649355 16.3313184 135.88649355 14.375 138.0625 C11.9171563 140.37138348 9.32939905 141.52364514 6.3125 143 C5.2930881 143.98020375 4.29003644 144.97803008 3.3125 146 C1.125 147.1875 1.125 147.1875 -0.6875 148 C-1.450625 147.21625 -2.21375 146.4325 -3 145.625 C-6.71087403 141.85787659 -6.71087403 141.85787659 -11.6875 141 C-11.914375 140.4225 -12.14125 139.845 -12.375 139.25 C-14.05105272 136.37676677 -16.0308434 135.00725165 -18.6875 133 C-20.51410727 131.40171864 -22.32886334 129.79132863 -24.13671875 128.171875 C-25.629481 126.79903668 -25.629481 126.79903668 -27.6875 127 C-28.491875 126.030625 -29.29625 125.06125 -30.125 124.0625 C-32.39434377 120.80624673 -32.39434377 120.80624673 -35.6875 120 C-35.11405063 117.13275314 -34.8260485 116.1385485 -32.6875 114 C-32.048125 113.319375 -31.40875 112.63875 -30.75 111.9375 C-28.6875 110 -28.6875 110 -25.6875 109 C-23.99876121 107.35570171 -22.33444485 105.68615782 -20.6875 104 C-18.08555317 101.83171097 -15.50668569 99.87945712 -12.6875 98 C-11.6975 97.01 -11.6975 97.01 -10.6875 96 C-9.90375 95.38125 -9.12 94.7625 -8.3125 94.125 C-7.44625 93.42375 -6.58 92.7225 -5.6875 92 C-4.98214111 91.46753662 -4.27678223 90.93507324 -3.55004883 90.38647461 C-0.89852799 86.98909407 -1.16824136 83.81852565 -1.26171875 79.69140625 C-1.26500687 78.88767075 -1.26829498 78.08393524 -1.27168274 77.25584412 C-1.28741224 74.69084688 -1.33144964 72.1271593 -1.375 69.5625 C-1.38649399 67.84050546 -1.39627837 66.11849861 -1.40429688 64.39648438 C-1.41772652 62.74477839 -1.43265102 61.09308374 -1.44921875 59.44140625 C-1.45660568 58.67043106 -1.46399261 57.89945587 -1.47160339 57.1051178 C-1.53889767 53.29099228 -1.77503291 49.71002599 -2.6875 46 C-3.0175 46 -3.3475 46 -3.6875 46 Z " fill="#EFAF2A" transform="translate(188.6875,96)"/>
<path d="M0 0 C46.41881919 0 46.41881919 0 56.29296875 9.1171875 C65.15850474 18.70940677 67.56351737 29.15711643 67.24609375 42.078125 C66.24799839 53.92852705 63.41682696 63.21708078 54.5625 71.375 C39.57403789 83.31944773 16.96651965 78 0 78 C0 52.26 0 26.52 0 0 Z M16 14 C16 30.83 16 47.66 16 65 C30.39496143 65.72216618 30.39496143 65.72216618 43.1640625 60.265625 C49.97141415 53.03806646 50.40181682 45.27428918 50.25 35.671875 C49.82527914 29.4337874 48.61545372 25.00840193 44.6875 20.125 C35.70276877 13.02079391 27.55843625 14 16 14 Z " fill="#F0B22C" transform="translate(735,211)"/>
<path d="M0 0 C1.32 0.66 2.64 1.32 4 2 C4.02705308 4.41674224 4.04686438 6.8331794 4.0625 9.25 C4.07087891 9.93191406 4.07925781 10.61382812 4.08789062 11.31640625 C4.113302 16.55114976 4.113302 16.55114976 3.4921875 19.01171875 C2.55831989 22.78424742 3.00474031 26.73694389 3.12695312 30.59960938 C3.18988814 34.32758333 3.1290504 35.80642441 1 39 C0.01 39 -0.98 39 -2 39 C-2.66 40.32 -3.32 41.64 -4 43 C-4.66 43 -5.32 43 -6 43 C-7.68933922 44.6436814 -9.35259924 46.3142876 -11 48 C-12.65002828 49.35386936 -14.3174387 50.68678142 -16 52 C-16.76376953 52.67289062 -16.76376953 52.67289062 -17.54296875 53.359375 C-21.68469101 57 -21.68469101 57 -25 57 C-25.2475 57.639375 -25.495 58.27875 -25.75 58.9375 C-27 61 -27 61 -29.0625 61.5625 C-29.701875 61.706875 -30.34125 61.85125 -31 62 C-31.33 62.99 -31.66 63.98 -32 65 C-32.66 65 -33.32 65 -34 65 C-34.763125 65.78375 -35.52625 66.5675 -36.3125 67.375 C-38.89815676 69.90052521 -40.60841682 70.93407386 -44 72 C-44 72.66 -44 73.32 -44 74 C-44.99 74 -45.98 74 -47 74 C-47.33 74.99 -47.66 75.98 -48 77 C-49.70703125 78.28125 -49.70703125 78.28125 -51.8125 79.5 C-55.84178709 81.90468999 -59.3336523 84.39288321 -62.8125 87.5625 C-66.00454712 90.27288272 -68.94061965 91.10693632 -73 92 C-73.85903647 84.12680359 -74.1543403 76.35449124 -74.125 68.4375 C-74.12886719 67.35919922 -74.13273438 66.28089844 -74.13671875 65.16992188 C-74.13542969 64.14318359 -74.13414062 63.11644531 -74.1328125 62.05859375 C-74.13168457 61.13361084 -74.13055664 60.20862793 -74.12939453 59.25561523 C-74 57 -74 57 -73 55 C-72.34 55 -71.68 55 -71 55 C-70.67 54.01 -70.34 53.02 -70 52 C-68.21484375 50.60546875 -68.21484375 50.60546875 -65.9375 49.1875 C-60.70173337 45.83359837 -55.41162688 42.41162688 -51 38 C-50.01 38 -49.02 38 -48 38 C-47.67 37.01 -47.34 36.02 -47 35 C-44.39958861 33.09303165 -41.87746066 31.39884575 -38.9375 30.0625 C-36.78532265 29.00539333 -36.78532265 29.00539333 -34.75 26.6875 C-30.75177876 22.78014743 -26.32023956 19.77341319 -21 18 C-20.505 16.515 -20.505 16.515 -20 15 C-19.01 15 -18.02 15 -17 15 C-16.67 14.01 -16.34 13.02 -16 12 C-14.29296875 10.4296875 -14.29296875 10.4296875 -12.1875 8.875 C-11.50042969 8.35679687 -10.81335938 7.83859375 -10.10546875 7.3046875 C-8 6 -8 6 -5.80078125 5.5078125 C-5.20652344 5.34023437 -4.61226563 5.17265625 -4 5 C-3.67 4.01 -3.34 3.02 -3 2 C-2.01 2 -1.02 2 0 2 C0 1.34 0 0.68 0 0 Z " fill="#EEAD28" transform="translate(260,232)"/>
<path d="M0 0 C5.28 0 10.56 0 16 0 C16 27.06 16 54.12 16 82 C10.72 82 5.44 82 0 82 C-0.33 80.02 -0.66 78.04 -1 76 C-1.721875 76.78375 -2.44375 77.5675 -3.1875 78.375 C-8.71174984 83.53096651 -14.17521708 83.50113488 -21.48046875 83.37109375 C-27.44987964 82.74168861 -31.6850939 80.72543132 -35.5859375 76.1328125 C-42.64067829 65.65264843 -42.59772578 51.58179655 -40.34765625 39.49609375 C-38.38009034 33.42450624 -35.34041595 28.60120002 -30 25 C-23.20553002 21.66073831 -16.32984172 21.3102197 -9 23 C-6.0369177 24.24898883 -3.3031811 25.6968189 -1 28 C-0.67 18.76 -0.34 9.52 0 0 Z M-20 37 C-25.3020987 42.44162761 -25.28736407 47.74850941 -25.32348633 54.93603516 C-25.23380898 60.53673519 -24.56412149 63.72305421 -21 68 C-16.9556813 70.69621247 -13.74665346 70.54319098 -9 70 C-5.27789139 68.38169191 -3.10069559 66.46614772 -1 63 C0.94955884 56.88055142 1.14377413 48.99744497 -1.25 43 C-3.6289771 38.92175355 -5.21522694 36.55526273 -9.8125 35.125 C-13.71204712 34.97207658 -16.38229234 35.5261191 -20 37 Z " fill="#F0B12C" transform="translate(676,207)"/>
<path d="M0 0 C0.928125 0.86625 0.928125 0.86625 1.875 1.75 C0.31798069 6.42105792 -2.20947373 9.83705685 -5.125 13.75 C-8.66083665 13.00724219 -11.28890328 11.49631146 -14.40234375 9.671875 C-19.09601753 7.16006772 -24.98818866 6.95957333 -30.09375 8.24609375 C-33.1486013 9.35410334 -34.83579721 10.13946077 -36.25 13.125 C-36.07982899 16.6985912 -35.53302544 18.05867745 -33.125 20.75 C-29.147466 22.738767 -24.73376841 23.59619227 -20.4453125 24.6796875 C-11.19069773 27.03083496 -3.51383331 29.08340003 2.875 36.75 C5.95444457 42.76224891 5.8025358 50.62686641 4.33984375 57.12890625 C2.23959415 63.17716602 -0.51947341 67.0933197 -6.1875 70 C-12.01603564 72.72967888 -16.83301057 72.96481944 -23.1875 73 C-24.09177734 73.020625 -24.99605469 73.04125 -25.92773438 73.0625 C-35.03022351 73.1145514 -42.93596474 71.75228115 -49.6875 65.25 C-50.51378906 64.4765625 -51.34007812 63.703125 -52.19140625 62.90625 C-54.125 60.75 -54.125 60.75 -55.125 57.75 C-53.47265625 55.26953125 -53.47265625 55.26953125 -51.1875 52.5625 C-50.06021484 51.21091797 -50.06021484 51.21091797 -48.91015625 49.83203125 C-48.32105469 49.14496094 -47.73195313 48.45789063 -47.125 47.75 C-43.53541648 48.33360712 -41.79445576 49.70443917 -39.1875 52.1875 C-34.15288966 56.72979604 -29.95100568 58.28721995 -23.125 58.75 C-19.24806611 58.18110209 -15.97502476 57.60002476 -13.125 54.75 C-12.12320698 50.95749784 -11.60569432 48.75020118 -13.4453125 45.20703125 C-17.40747665 41.57408482 -21.71769533 40.91717948 -26.875 39.75 C-35.67783003 37.72581983 -44.41680419 35.23607134 -50.1484375 27.671875 C-53.1464643 21.77175825 -53.91204316 15.0378118 -51.875 8.75 C-51.33273147 7.39944441 -50.75029418 6.06417759 -50.125 4.75 C-49.80273438 4.05003906 -49.48046875 3.35007813 -49.1484375 2.62890625 C-46.61995282 -2.0130828 -42.10117283 -3.86980139 -37.3828125 -5.63671875 C-24.77297912 -9.0618811 -10.69190261 -7.69816988 0 0 Z " fill="#F0B22C" transform="translate(440.125,217.25)"/>
<path d="M0 0 C7.24681344 2.87137891 7.24681344 2.87137891 10 6 C12.2536765 7.84917046 14.52411523 9.65101784 16.875 11.375 C19.4007992 13.30649351 21.79075677 15.36974245 24.1953125 17.44921875 C25.86394021 18.88308282 27.55164345 20.28910195 29.25 21.6875 C30.1575 22.450625 31.065 23.21375 32 24 C32.54469437 24.43721878 33.08938873 24.87443756 33.65058899 25.3249054 C35.51587717 27.64038537 35.36200813 29.16354797 35.34057617 32.11401367 C35.34023628 33.67529243 35.34023628 33.67529243 35.33988953 35.26811218 C35.32440567 36.39006485 35.30892181 37.51201752 35.29296875 38.66796875 C35.28872391 39.81791824 35.28447906 40.96786774 35.28010559 42.15266418 C35.26329189 45.83117941 35.22563377 49.50914992 35.1875 53.1875 C35.17245669 55.67902856 35.15876767 58.17056568 35.14648438 60.66210938 C35.11337953 66.77492593 35.06315305 72.88742405 35 79 C32.13275314 78.42655063 31.1385485 78.1385485 29 76 C27.67732273 74.98594743 26.34275169 73.98731742 25 73 C24.29875 72.46375 23.5975 71.9275 22.875 71.375 C21.04608117 69.95291706 21.04608117 69.95291706 19 69 C19 68.34 19 67.68 19 67 C18.484375 66.773125 17.96875 66.54625 17.4375 66.3125 C14.10452995 64.51782382 10.85296329 62.50034985 8 60 C8 59.34 8 58.68 8 58 C7.2575 57.7525 6.515 57.505 5.75 57.25 C2.75462243 55.88846474 1.23544811 54.37967057 -1 52 C-2.31337396 50.9739266 -3.64664105 49.97272675 -5 49 C-6.34789347 48.01971384 -7.68212715 47.02028865 -9 46 C-9.52529297 45.62012939 -10.05058594 45.24025879 -10.59179688 44.84887695 C-13.67494617 40.80090718 -12.51620779 34.38426553 -12.50097656 29.43139648 C-12.50000757 27.20488801 -12.54155051 24.98186705 -12.5859375 22.75585938 C-12.59114764 21.33073631 -12.59383264 19.90560134 -12.59375 18.48046875 C-12.60083984 17.19035889 -12.60792969 15.90024902 -12.61523438 14.57104492 C-11.80784853 9.8846827 -10.41167388 8.2598833 -7 5 C-6.01 5 -5.02 5 -4 5 C-3.67 4.01 -3.34 3.02 -3 2 C-2.01 2 -1.02 2 0 2 C0 1.34 0 0.68 0 0 Z " fill="#EFAF2A" transform="translate(127,231)"/>
<path d="M0 0 C6.61835068 6.54718562 8.08584011 13.24409389 8.1875 22.375 C8.15343915 28.84656085 8.15343915 28.84656085 7 30 C4.1883662 30.08861992 1.40141745 30.11522355 -1.41015625 30.09765625 C-2.25219101 30.0962413 -3.09422577 30.09482635 -3.96177673 30.09336853 C-6.66205335 30.08775263 -9.36224828 30.07519748 -12.0625 30.0625 C-13.88867068 30.05748705 -15.71484266 30.05292379 -17.54101562 30.04882812 C-22.02737542 30.03777804 -26.51367384 30.02050279 -31 30 C-30.26530861 31.63197842 -29.51161878 33.25541307 -28.75 34.875 C-28.33234375 35.77992188 -27.9146875 36.68484375 -27.484375 37.6171875 C-25.85384964 40.23460979 -24.8647242 40.98421566 -22 42 C-17.20152498 42.6809717 -12.60511774 42.82941054 -8.4375 40.125 C-5.96011374 38.23715667 -5.96011374 38.23715667 -5 36 C0.02692063 36.45699278 3.14896261 38.99241748 7 42 C5.94431808 46.7555957 4.05715669 49.41490663 0.14453125 52.4296875 C-8.57581482 57.74294483 -19.382683 57.3267597 -29.13671875 55.37109375 C-36.02959969 53.01716963 -40.81828533 48.37147995 -44.05859375 41.87890625 C-47.82549565 32.34449905 -48.38617439 21.75288769 -45 12 C-41.83259437 5.25689036 -37.33048087 -0.28035977 -30.3046875 -3.0703125 C-20.27065486 -5.97834807 -8.90716838 -6.1380091 0 0 Z M-28 12 C-29.70805274 14.68408288 -30 15.76169533 -30 19 C-22.41 19 -14.82 19 -7 19 C-7.52843086 13.27074706 -7.52843086 13.27074706 -9.9375 10.125 C-15.90861011 5.98178074 -23.07091374 6.45477796 -28 12 Z " fill="#F0B22C" transform="translate(859,234)"/>
<path d="M0 0 C5.28 0 10.56 0 16 0 C16.01401855 1.87703613 16.01401855 1.87703613 16.02832031 3.79199219 C16.06820482 8.4365595 16.13395941 13.08046335 16.20751953 17.72460938 C16.23573807 19.73428827 16.25694821 21.74407834 16.27099609 23.75390625 C16.29241335 26.64380849 16.33905703 29.5323729 16.390625 32.421875 C16.39185364 33.31992859 16.39308228 34.21798218 16.39434814 35.14324951 C16.50047899 40.18184496 16.50047899 40.18184496 18.79199219 44.57519531 C22.91229129 47.23398186 27.30939794 46.33076997 31.875 45.4375 C34.97685731 43.33918476 35.32049794 40.50842919 36 37 C36.29782007 34.07378106 36.37014219 31.16254114 36.4140625 28.22265625 C36.43342865 27.41130722 36.4527948 26.59995819 36.4727478 25.76402283 C36.53206966 23.19695228 36.57873736 20.62983571 36.625 18.0625 C36.66322352 16.31183044 36.70227774 14.56117881 36.7421875 12.81054688 C36.83928083 8.54046297 36.91922309 4.27054778 37 0 C42.28 0 47.56 0 53 0 C53 19.47 53 38.94 53 59 C48.05 59 43.1 59 38 59 C37.505 55.535 37.505 55.535 37 52 C36.46375 52.763125 35.9275 53.52625 35.375 54.3125 C31.87434852 58.27376351 28.63279348 59.80448751 23.37890625 60.43359375 C10.13133061 60.44715319 10.13133061 60.44715319 5 56 C-0.41782641 49.07256252 -0.14509393 41.3680442 -0.09765625 33.0078125 C-0.0962413 32.06187225 -0.09482635 31.11593201 -0.09336853 30.1413269 C-0.08779484 27.13585171 -0.0752472 24.13045247 -0.0625 21.125 C-0.0574816 19.08073025 -0.05291929 17.03645932 -0.04882812 14.9921875 C-0.03783403 9.99476264 -0.02058757 4.99739417 0 0 Z " fill="#F0B22C" transform="translate(501,230)"/>
<path d="M0 0 C5.57902153 4.60875692 7.06654395 9.01371917 8 16 C8.13005017 19.18574719 8.11665926 22.36674216 8.09765625 25.5546875 C8.0962413 26.45623566 8.09482635 27.35778381 8.09336853 28.28665161 C8.0877974 31.149469 8.07525026 34.01220648 8.0625 36.875 C8.05748127 38.82291553 8.05291901 40.7708323 8.04882812 42.71875 C8.03783742 47.47919718 8.02059277 52.23958507 8 57 C2.72 57 -2.56 57 -8 57 C-8.01458252 55.77893555 -8.02916504 54.55787109 -8.04418945 53.29980469 C-8.10218565 48.76711828 -8.17941857 44.23492796 -8.26245117 39.70263672 C-8.29569428 37.74145564 -8.32372815 35.78017902 -8.34643555 33.81884766 C-8.37999281 30.99860953 -8.43230899 28.17924635 -8.48828125 25.359375 C-8.49467117 24.48319519 -8.5010611 23.60701538 -8.50764465 22.70428467 C-8.620374 17.8922063 -8.620374 17.8922063 -10.35620117 13.46972656 C-12.82244094 11.26465254 -14.72986097 11.12824075 -18 11 C-21.80557945 11.89543046 -24.68603365 12.7604471 -27 16 C-28.92770994 20.75263243 -29.33434797 25.1726353 -29.4140625 30.2421875 C-29.43342865 31.01055939 -29.4527948 31.77893127 -29.4727478 32.57058716 C-29.53214117 35.00528138 -29.57876628 37.44002393 -29.625 39.875 C-29.66321693 41.53387386 -29.70227079 43.19272867 -29.7421875 44.8515625 C-29.83937251 48.90093794 -29.91925758 52.95013034 -30 57 C-35.28 57 -40.56 57 -46 57 C-46.02255549 49.45501411 -46.04091769 41.91004069 -46.05181217 34.36502934 C-46.05703989 30.86191115 -46.0641355 27.35881715 -46.07543945 23.85571289 C-46.08834206 19.83219159 -46.09322912 15.80869586 -46.09765625 11.78515625 C-46.10539818 9.88987938 -46.10539818 9.88987938 -46.11329651 7.95631409 C-46.11337204 6.795186 -46.11344757 5.63405792 -46.11352539 4.43774414 C-46.11685631 2.8955294 -46.11685631 2.8955294 -46.12025452 1.32215881 C-46 -1 -46 -1 -45 -2 C-42.64686445 -2.07271741 -40.29166332 -2.08370868 -37.9375 -2.0625 C-36.64714844 -2.05347656 -35.35679687 -2.04445312 -34.02734375 -2.03515625 C-33.02832031 -2.02355469 -32.02929688 -2.01195312 -31 -2 C-30.67 0.64 -30.34 3.28 -30 6 C-29.278125 5.236875 -28.55625 4.47375 -27.8125 3.6875 C-19.81889938 -3.95082948 -9.82623661 -5.18148191 0 0 Z " fill="#F0B22C" transform="translate(615,232)"/>
<path d="M0 0 C1.73046875 1.49609375 1.73046875 1.49609375 3 3 C2.6875 5.1875 2.6875 5.1875 2 7 C1.34 7 0.68 7 0 7 C-0.433125 7.928125 -0.433125 7.928125 -0.875 8.875 C-2 11 -2 11 -4 13 C-6.61305992 12.72968346 -8.00067567 11.99950319 -10.125 10.4375 C-14.31705174 8.34147413 -18.38675912 8.57541854 -23 9 C-23.99 9.495 -23.99 9.495 -25 10 C-25 11.65 -25 13.3 -25 15 C-20.70776606 17.0485662 -16.64313658 18.37587832 -12 19.4375 C-5.38048457 21.05100689 -0.94263192 22.55925733 3.4375 28.0625 C6.11508246 33.4875149 6.13589176 39.6265727 4.22265625 45.30859375 C1.67991792 50.09545701 -1.86991896 52.9749829 -6.79296875 55.15234375 C-16.10949778 57.61481245 -27.33412294 57.48443894 -36.0703125 53.20703125 C-39.00716525 51.37001202 -40.95072247 49.8265897 -43 47 C-42.69063435 43.37600233 -41.01303777 41.6850539 -38.4375 39.25 C-37.47650391 38.32960938 -37.47650391 38.32960938 -36.49609375 37.390625 C-36.00238281 36.93171875 -35.50867188 36.4728125 -35 36 C-32.49552557 37.18829319 -30.57997286 38.33002133 -28.375 40.0625 C-23.99914281 42.57456617 -20.00926515 43.04310899 -15 43 C-13.515 42.505 -13.515 42.505 -12 42 C-11.23043864 39.65466049 -11.23043864 39.65466049 -11 37 C-13.0278764 34.37322545 -14.83526152 33.52550044 -18.01953125 32.7890625 C-18.79490234 32.59570312 -19.57027344 32.40234375 -20.36914062 32.203125 C-21.98520594 31.82074664 -23.60238992 31.44306266 -25.22070312 31.0703125 C-30.70174878 29.6921174 -33.98498187 28.02118559 -38 24 C-40.66593519 19.20131665 -41.58527247 15.46254307 -41 10 C-39.17332699 4.11405362 -36.90935508 1.43654856 -32 -2 C-21.94463985 -7.02768008 -9.34155632 -5.88172064 0 0 Z " fill="#F0B22C" transform="translate(979,234)"/>
<path d="M0 0 C5.28 0 10.56 0 16 0 C20.62 13.2 25.24 26.4 30 40 C32.27349701 34.31625747 34.50856812 28.72416605 36.54296875 22.96875 C36.97673828 21.74671875 37.41050781 20.5246875 37.85742188 19.265625 C38.29634766 18.02296875 38.73527344 16.7803125 39.1875 15.5 C40.07527196 12.98902744 40.96495185 10.47875265 41.85546875 7.96875 C42.24371826 6.86982422 42.63196777 5.77089844 43.03198242 4.63867188 C44 2 44 2 45 0 C50.28 0 55.56 0 61 0 C58.87206469 7.35211952 56.42972259 14.52022927 53.76953125 21.6953125 C53.1766053 23.30549759 53.1766053 23.30549759 52.57170105 24.94821167 C51.32144205 28.34151779 50.06704274 31.73327561 48.8125 35.125 C47.95870913 37.44000267 47.10519083 39.75510589 46.25195312 42.0703125 C44.17111762 47.71470877 42.08657016 53.35772128 40 59 C33.73 59 27.46 59 21 59 C18.03055344 52.48426901 15.37959077 45.91183967 12.890625 39.19921875 C12.33311554 37.70102348 12.33311554 37.70102348 11.76434326 36.17256165 C10.98634796 34.07810625 10.20994096 31.98306025 9.43505859 29.88745117 C8.24608902 26.67693938 7.04705075 23.47030131 5.84765625 20.26367188 C5.09052758 18.22158329 4.33399588 16.17927324 3.578125 14.13671875 C3.21881897 13.17940353 2.85951294 12.22208832 2.48931885 11.23576355 C1.99815582 9.89835869 1.99815582 9.89835869 1.49707031 8.53393555 C1.06216278 7.36220039 1.06216278 7.36220039 0.61846924 6.16679382 C0 4 0 4 0 0 Z " fill="#F0B22C" transform="translate(872,230)"/>
<path d="M0 0 C0 4.29 0 8.58 0 13 C5.28 13 10.56 13 16 13 C16 17.29 16 21.58 16 26 C10.72 26 5.44 26 0 26 C0.11979181 30.23604232 0.24239341 34.47180389 0.37231445 38.70751953 C0.41566231 40.1488762 0.45733752 41.59028418 0.49731445 43.03173828 C0.55502088 45.10204541 0.61871371 47.17209432 0.68359375 49.2421875 C0.72025146 50.4885498 0.75690918 51.73491211 0.79467773 53.01904297 C0.80289479 55.92636942 0.80289479 55.92636942 2 58 C6.57462259 59.19811544 10.38032292 58.83154187 15 58 C16.60385043 61.65170466 18 64.84712488 18 68.875 C17 71 17 71 14.89453125 72.109375 C8.12633539 74.1918968 -1.14076708 74.3395583 -7.6875 71.375 C-11.79461685 68.84823028 -14.34283003 65.47001523 -15.59155273 60.77661133 C-16.09923129 57.32542891 -16.11155557 54.00044772 -16.09765625 50.51171875 C-16.0962413 49.80852005 -16.09482635 49.10532135 -16.09336853 48.3808136 C-16.08780109 46.14966456 -16.07525475 43.91861836 -16.0625 41.6875 C-16.05748079 40.16862125 -16.05291862 38.64974091 -16.04882812 37.13085938 C-16.03784236 33.42053988 -16.02060034 29.71027999 -16 26 C-18.97 26 -21.94 26 -25 26 C-25 21.71 -25 17.42 -25 13 C-22.03 13 -19.06 13 -16 13 C-16 9.37 -16 5.74 -16 2 C-10.42932723 0.40837921 -5.78898419 -0.20674944 0 0 Z " fill="#F0B22C" transform="translate(475,217)"/>
<path d="M0 0 C0.33 0.99 0.66 1.98 1 3 C0.38511719 3.47050781 -0.22976562 3.94101562 -0.86328125 4.42578125 C-1.67152344 5.04839844 -2.47976562 5.67101562 -3.3125 6.3125 C-4.11300781 6.92738281 -4.91351563 7.54226563 -5.73828125 8.17578125 C-7.97413974 9.89558905 -7.97413974 9.89558905 -9.625 11.71875 C-11 13 -11 13 -13.6875 13.1875 C-14.450625 13.125625 -15.21375 13.06375 -16 13 C-14.71034824 11.62437146 -13.37310707 10.29233607 -12 9 C-11.34 9 -10.68 9 -10 9 C-9.67 8.01 -9.34 7.02 -9 6 C-7.3364521 5.32558869 -5.66933058 4.6599679 -4 4 C-1.72808584 1.97959252 -1.72808584 1.97959252 0 0 Z " fill="#F58D15" transform="translate(207,352)"/>
<path d="M0 0 C0.33 0 0.66 0 1 0 C1 13.2 1 26.4 1 40 C0.67 40 0.34 40 0 40 C0 26.8 0 13.6 0 0 Z " fill="#FF0000" transform="translate(163,259)"/>
<path d="M0 0 C0 3 0 3 0 3 Z M-3 2 C-2.34 2.66 -1.68 3.32 -1 4 C-2.4334152 5.15093925 -3.87188909 6.29558035 -5.3125 7.4375 C-6.51326172 8.39462891 -6.51326172 8.39462891 -7.73828125 9.37109375 C-10 11 -10 11 -13 12 C-12.1875 10.0625 -12.1875 10.0625 -11 8 C-10.01 7.67 -9.02 7.34 -8 7 C-6.29413425 5.37347684 -4.6222454 3.70993434 -3 2 Z " fill="#F58813" transform="translate(231,254)"/>
<path d="M0 0 C0.33 0 0.66 0 1 0 C1 9.9 1 19.8 1 30 C0.67 30 0.34 30 0 30 C0 20.1 0 10.2 0 0 Z " fill="#FFF600" transform="translate(113,243)"/>
<path d="M0 0 C0.33 0.66 0.66 1.32 1 2 C-3.625 6.875 -3.625 6.875 -7 8 C-7 7.01 -7 6.02 -7 5 C-4.0625 2.875 -4.0625 2.875 -1 1 C-0.67 0.67 -0.34 0.34 0 0 Z M-9 7 C-8.34 7.66 -7.68 8.32 -7 9 C-8.98 9.99 -8.98 9.99 -11 11 C-10.34 9.68 -9.68 8.36 -9 7 Z " fill="#F59C13" transform="translate(237,329)"/>
<path d="M0 0 C0.33 0.99 0.66 1.98 1 3 C-1.52788007 5.79872437 -3.20411134 7.45773019 -7 8 C-5.50902342 4.2047869 -3.24299151 2.38957269 0 0 Z " fill="#F29110" transform="translate(103,160)"/>
<path d="M0 0 C0.99 0 1.98 0 3 0 C3 0.66 3 1.32 3 2 C1.35546875 3.54296875 1.35546875 3.54296875 -0.8125 5.1875 C-1.52019531 5.73792969 -2.22789063 6.28835937 -2.95703125 6.85546875 C-3.63121094 7.23316406 -4.30539063 7.61085937 -5 8 C-5.99 7.67 -6.98 7.34 -8 7 C-7.50628906 6.66226563 -7.01257813 6.32453125 -6.50390625 5.9765625 C-5.86324219 5.53054687 -5.22257812 5.08453125 -4.5625 4.625 C-3.92441406 4.18414062 -3.28632812 3.74328125 -2.62890625 3.2890625 C-0.86259072 2.07839147 -0.86259072 2.07839147 0 0 Z " fill="#F79910" transform="translate(86,173)"/>
<path d="M0 0 C0.66 0.66 1.32 1.32 2 2 C-1.87564767 5.61139896 -1.87564767 5.61139896 -4 7 C-6.375 6.8125 -6.375 6.8125 -8 6 C-7.236875 5.566875 -6.47375 5.13375 -5.6875 4.6875 C-3.41906232 3.26313215 -1.7800277 1.96739903 0 0 Z " fill="#F5A415" transform="translate(250,319)"/>
<path d="M0 0 C0.33 0.99 0.66 1.98 1 3 C-1.475 4.485 -1.475 4.485 -4 6 C-4 5.01 -4 4.02 -4 3 C-3.01 3 -2.02 3 -1 3 C-0.67 2.01 -0.34 1.02 0 0 Z M-7 5 C-6.34 5.66 -5.68 6.32 -5 7 C-5.99 7.66 -6.98 8.32 -8 9 C-7.67 7.68 -7.34 6.36 -7 5 Z " fill="#F69214" transform="translate(128,141)"/>
<path d="M0 0 C-1.45255699 3.82946843 -3.42895561 5.12050295 -7 7 C-6.22006468 2.47637516 -4.81844319 0 0 0 Z " fill="#F68513" transform="translate(152,168)"/>
<path d="M0 0 C0.33 0.99 0.66 1.98 1 3 C-4.75 7 -4.75 7 -7 7 C-6.67 6.01 -6.34 5.02 -6 4 C-5.34 4 -4.68 4 -4 4 C-2.62689293 2.70766393 -1.28965176 1.37562854 0 0 Z " fill="#F1A614" transform="translate(207,352)"/>
<path d="M0 0 C0.66 0 1.32 0 2 0 C0.63016497 3.16115776 0.0109362 3.9927092 -3 6 C-5.1875 5.625 -5.1875 5.625 -7 5 C-6.21625 4.54625 -5.4325 4.0925 -4.625 3.625 C-1.96301969 2.11571258 -1.96301969 2.11571258 0 0 Z " fill="#F59510" transform="translate(201,276)"/>
<path d="M0 0 C-0.75 1.9375 -0.75 1.9375 -2 4 C-4.125 4.75 -4.125 4.75 -6 5 C-6.33 4.34 -6.66 3.68 -7 3 C-3.375 0 -3.375 0 0 0 Z " fill="#F0A415" transform="translate(256,237)"/>
<path d="M0 0 C0.33 0.99 0.66 1.98 1 3 C-4.2734375 6.22265625 -4.2734375 6.22265625 -6 7 C-6.66 6.67 -7.32 6.34 -8 6 C-7.05125 5.38125 -6.1025 4.7625 -5.125 4.125 C-2.05554891 2.18029031 -2.05554891 2.18029031 0 0 Z " fill="#F5B210" transform="translate(266,307)"/>
<path d="M0 0 C0.33 0.99 0.66 1.98 1 3 C-1.97 5.475 -1.97 5.475 -5 8 C-4.64950425 4.75791433 -4.43778819 3.38472296 -1.9375 1.1875 C-1.298125 0.795625 -0.65875 0.40375 0 0 Z " fill="#F48C16" transform="translate(33,214)"/>
<path d="M0 0 C0.66 0 1.32 0 2 0 C1.875 1.875 1.875 1.875 1 4 C-2.0625 5.25 -2.0625 5.25 -5 6 C-4.67 5.01 -4.34 4.02 -4 3 C-3.01 3 -2.02 3 -1 3 C-0.67 2.01 -0.34 1.02 0 0 Z " fill="#F5C714" transform="translate(164,202)"/>
<path d="M0 0 C0.66 0.66 1.32 1.32 2 2 C-0.25 4.0625 -0.25 4.0625 -3 6 C-5.3125 5.75 -5.3125 5.75 -7 5 C-6.01 5 -5.02 5 -4 5 C-3.67 4.34 -3.34 3.68 -3 3 C-2.01979625 1.9805881 -1.02196992 0.97753644 0 0 Z " fill="#F4BE15" transform="translate(276,299)"/>
<path d="M0 0 C0.66 0.33 1.32 0.66 2 1 C0.68 1.99 -0.64 2.98 -2 4 C-1.34 2.68 -0.68 1.36 0 0 Z M-4 3 C-3.34 3.66 -2.68 4.32 -2 5 C-2.66 5.66 -3.32 6.32 -4 7 C-4.99 6.67 -5.98 6.34 -7 6 C-6.01 5.01 -5.02 4.02 -4 3 Z " fill="#F69611" transform="translate(186,184)"/>
<path d="" fill="#FF0000" transform="translate(0,0)"/>
<path d="" fill="#FFFF00" transform="translate(0,0)"/>
<path d="" fill="#FF0000" transform="translate(0,0)"/>
<path d="" fill="#FF0000" transform="translate(0,0)"/>
<path d="" fill="#FFFF00" transform="translate(0,0)"/>
<path d="" fill="#FF0000" transform="translate(0,0)"/>
<path d="" fill="#FF0000" transform="translate(0,0)"/>
<path d="" fill="#FF0000" transform="translate(0,0)"/>
<path d="" fill="#FF0000" transform="translate(0,0)"/>
<path d="" fill="#FF8000" transform="translate(0,0)"/>
<path d="" fill="#FF0000" transform="translate(0,0)"/>
<path d="" fill="#FFFF00" transform="translate(0,0)"/>
<path d="" fill="#FFFF00" transform="translate(0,0)"/>
<path d="" fill="#FF0000" transform="translate(0,0)"/>
<path d="" fill="#FFFF00" transform="translate(0,0)"/>
<path d="" fill="#FF0000" transform="translate(0,0)"/>
<path d="" fill="#FFFF00" transform="translate(0,0)"/>
<path d="" fill="#FF0000" transform="translate(0,0)"/>
<path d="" fill="#FF0000" transform="translate(0,0)"/>
<path d="" fill="#FF0000" transform="translate(0,0)"/>
<path d="" fill="#FF0000" transform="translate(0,0)"/>
<path d="" fill="#FFFF00" transform="translate(0,0)"/>
<path d="" fill="#FF8000" transform="translate(0,0)"/>
<path d="" fill="#FF0000" transform="translate(0,0)"/>
<path d="" fill="#FF0000" transform="translate(0,0)"/>
<path d="" fill="#FF0000" transform="translate(0,0)"/>
<path d="" fill="#FF8000" transform="translate(0,0)"/>
<path d="" fill="#FF0000" transform="translate(0,0)"/>
<path d="" fill="#FFFF00" transform="translate(0,0)"/>
<path d="" fill="#FF0000" transform="translate(0,0)"/>
<path d="" fill="#FF0000" transform="translate(0,0)"/>
<path d="" fill="#FFFF00" transform="translate(0,0)"/>
<path d="" fill="#FFFF00" transform="translate(0,0)"/>
<path d="" fill="#FFFF00" transform="translate(0,0)"/>
<path d="" fill="#FF0000" transform="translate(0,0)"/>
<path d="" fill="#FF0000" transform="translate(0,0)"/>
<path d="" fill="#FFFF00" transform="translate(0,0)"/>
<path d="" fill="#FF0000" transform="translate(0,0)"/>
<path d="" fill="#FF0000" transform="translate(0,0)"/>
<path d="" fill="#FFFF00" transform="translate(0,0)"/>
<path d="" fill="#FFFF00" transform="translate(0,0)"/>
<path d="" fill="#FF0000" transform="translate(0,0)"/>
<path d="" fill="#FFFF00" transform="translate(0,0)"/>
<path d="" fill="#FF0000" transform="translate(0,0)"/>
<path d="" fill="#FF0000" transform="translate(0,0)"/>
<path d="" fill="#FF8000" transform="translate(0,0)"/>
<path d="" fill="#FFFF00" transform="translate(0,0)"/>
<path d="" fill="#FF0000" transform="translate(0,0)"/>
<path d="" fill="#FF0000" transform="translate(0,0)"/>
<path d="" fill="#FF8000" transform="translate(0,0)"/>
</svg>
